<mxfile host="Electron" agent="Mozilla/5.0 (X11; Linux x86_64) AppleWebKit/537.36 (KHTML, like Gecko) draw.io/28.1.2 Chrome/138.0.7204.243 Electron/37.4.0 Safari/537.36" version="28.1.2">
  <diagram name="第 1 页" id="A2wYnKDMZFF023bxGnZ8">
    <mxGraphModel dx="2864" dy="1174" grid="1" gridSize="10" guides="1" tooltips="1" connect="1" arrows="1" fold="1" page="1" pageScale="1" pageWidth="827" pageHeight="1169" math="0" shadow="0">
      <root>
        <mxCell id="0" />
        <mxCell id="1" parent="0" />
        <mxCell id="qlxX7Fygw9MmZmLqK2NQ-1" value="AbstractApplicationContext" style="shape=umlLifeline;perimeter=lifelinePerimeter;whiteSpace=wrap;html=1;container=1;dropTarget=0;collapsible=0;recursiveResize=0;outlineConnect=0;portConstraint=eastwest;newEdgeStyle={&quot;curved&quot;:0,&quot;rounded&quot;:0};fontSize=20;fillColor=#dae8fc;strokeColor=#6c8ebf;strokeWidth=2;fontStyle=1;fontColor=#FF0000;" parent="1" vertex="1">
          <mxGeometry x="193.5" y="160" width="353" height="2420" as="geometry" />
        </mxCell>
        <mxCell id="tHCy42ypWK_uThyhraDl-2" value="" style="html=1;whiteSpace=wrap;fontSize=20;fillColor=#dae8fc;strokeColor=#6c8ebf;" parent="1" vertex="1">
          <mxGeometry x="-100" y="250" width="940" height="750" as="geometry" />
        </mxCell>
        <mxCell id="tHCy42ypWK_uThyhraDl-4" value="SimpleApplicationEventMulticaster" style="shape=umlLifeline;perimeter=lifelinePerimeter;whiteSpace=wrap;html=1;container=1;dropTarget=0;collapsible=0;recursiveResize=0;outlineConnect=0;portConstraint=eastwest;newEdgeStyle={&quot;curved&quot;:0,&quot;rounded&quot;:0};fontSize=20;fillColor=#dae8fc;strokeColor=#6c8ebf;strokeWidth=2;" parent="1" vertex="1">
          <mxGeometry x="1026.49" y="160" width="418" height="2410" as="geometry" />
        </mxCell>
        <mxCell id="tHCy42ypWK_uThyhraDl-15" value="&lt;span style=&quot;font-size: 20px;&quot;&gt;registerListeners()&lt;/span&gt;" style="text;html=1;align=center;verticalAlign=middle;whiteSpace=wrap;rounded=0;" parent="1" vertex="1">
          <mxGeometry x="287" y="283" width="120" height="50" as="geometry" />
        </mxCell>
        <mxCell id="tHCy42ypWK_uThyhraDl-28" value="&lt;div&gt;注册以下ApplicationListener：&lt;/div&gt;&lt;div&gt;（1）AbstractApplicationContext中存在的ApplicationListener：&lt;/div&gt;&lt;div&gt;RSocketPortInfoApplicationContextInitializer(springboot)&lt;/div&gt;&lt;div&gt;ServerPortInfoApplicationContextInitializer(spring)&lt;/div&gt;&lt;div&gt;ConditionEvaluationReportLoggingListener(springboot)&lt;/div&gt;&lt;div&gt;EnvironmentPostProcessorApplicationListener(springboot)&lt;/div&gt;&lt;div&gt;AnsiOutputApplicationListener(springboot)&lt;/div&gt;&lt;div&gt;LoggingApplicationListener(springboot)&lt;/div&gt;&lt;div&gt;BackgroundPreinitializer(springboot)&lt;/div&gt;&lt;div&gt;WelcomeLogoApplicationListener(dubbo)&lt;/div&gt;&lt;div&gt;ParentContextCloserApplicationListener(springboot)&lt;/div&gt;&lt;div&gt;ClearCachesApplicationListener(springboot)&lt;/div&gt;&lt;div&gt;FileEncodingApplicationListener(springboot)&lt;/div&gt;&lt;div&gt;SpringApplicationShutdownHook$ApplicationContextClosedListener(springboot)&lt;/div&gt;&lt;div&gt;SharedMetadataReaderFactoryContextInitializer$SharedMetadataReaderFactoryBean(springboot)&lt;/div&gt;&lt;div&gt;（2）BeanFactory中存在的ApplicationListener：&lt;/div&gt;&lt;div&gt;SharedMetadataReaderFactoryContextInitializer$SharedMetadataReaderFactoryBean(springboot)&lt;/div&gt;&lt;div&gt;DubboDeployApplicationListener(dubbo)&lt;/div&gt;&lt;div&gt;DubboConfigApplicationListener(dubbo)&lt;/div&gt;&lt;div&gt;DubboConfigBeanDefinitionConflictApplicationListener(dubbo)&lt;/div&gt;&lt;div&gt;AwaitingNonWebApplicationListener(springboot)&lt;/div&gt;&lt;div&gt;ApplicationAvailabilityBean(springboot)&lt;/div&gt;&lt;div&gt;ThreadPoolTaskExecutor(spring)&lt;/div&gt;" style="html=1;whiteSpace=wrap;fontSize=20;fillColor=#dae8fc;strokeColor=#6c8ebf;strokeWidth=1;align=left;verticalAlign=top;" parent="1" vertex="1">
          <mxGeometry x="-73.57" y="333" width="887.14" height="567" as="geometry" />
        </mxCell>
        <mxCell id="KwpqBEv4T0Tl1birE-Hl-1" value="发布广播事件" style="html=1;whiteSpace=wrap;fontSize=20;fillColor=#dae8fc;strokeColor=#6c8ebf;strokeWidth=1;align=center;verticalAlign=middle;" parent="1" vertex="1">
          <mxGeometry x="-73.57" y="940" width="887.14" height="30" as="geometry" />
        </mxCell>
        <mxCell id="RKcYqGWdRNkFQDcnvxM3-1" value="DubboConfigInitEvent(触发Dubbo配置Bean的加载与初始化)" style="html=1;whiteSpace=wrap;fontSize=20;fillColor=#dae8fc;strokeColor=#6c8ebf;" parent="1" vertex="1">
          <mxGeometry x="980" y="935" width="649.8" height="35" as="geometry" />
        </mxCell>
        <mxCell id="RKcYqGWdRNkFQDcnvxM3-2" value="" style="endArrow=classic;html=1;rounded=0;exitX=1;exitY=0.5;exitDx=0;exitDy=0;" parent="1" source="KwpqBEv4T0Tl1birE-Hl-1" target="RKcYqGWdRNkFQDcnvxM3-1" edge="1">
          <mxGeometry width="50" height="50" relative="1" as="geometry">
            <mxPoint x="950" y="1120" as="sourcePoint" />
            <mxPoint x="1000" y="1070" as="targetPoint" />
          </mxGeometry>
        </mxCell>
      </root>
    </mxGraphModel>
  </diagram>
</mxfile>
